M48
;GenerationSoftware,Autodesk,EAGLE,9.3.2*%
;CreationDate,2020-02-22T09:53:26Z*%
FMAT,2
ICI,OFF
METRIC,TZ,000.000
T8C0.800
T7C0.813
T6C0.900
T5C0.965
T4C1.000
T3C1.016
T2C1.803
%
G90
M71
T2
X-17780Y1346
X-17780Y-3353
X-17780Y-8052
T3
X20955Y16281
X18415Y16281
X-16510Y-12243
X-18694Y5842
X-16154Y5842
X-16764Y15977
X-19304Y15977
X20320Y-12878
X17780Y-12878
X-19050Y-12243
T4
X0Y-14783
X-2540Y-12243
X2540Y-14783
X5080Y-14783
X2540Y-12243
X0Y-12243
X-2540Y-14783
X5080Y-12243
T5
X-2540Y6807
X-5080Y6807
X-7620Y6807
X15240Y6807
X-10160Y6807
X0Y6807
X2540Y6807
X5080Y6807
X7620Y6807
X10160Y6807
X12700Y6807
X20320Y-8433
X-12700Y6807
X-12700Y-8433
X-10160Y-8433
X-7620Y-8433
X-5080Y-8433
X-2540Y-8433
X0Y-8433
X2540Y-8433
X5080Y-8433
X7620Y-8433
X10160Y-8433
X12700Y-8433
X15240Y-8433
X17780Y-8433
X20320Y6807
X17780Y6807
T6
X-9804Y9347
X21590Y9982
X13970Y9982
X-13970Y-12243
X-6350Y-12243
X-17424Y9347
X8890Y-10973
X16510Y-10973
T7
X20650Y14097
X10490Y14097
X-7620Y-14783
X-17780Y-14783
X10160Y-14783
X20320Y-14783
X-18999Y11582
X-8839Y11582
T8
X1270Y10922
X3810Y10922
X-1270Y10922
X-3810Y10922
X-6350Y10922
X6350Y10922
X8890Y10922
X11430Y10922
M30