G04 EAGLE Gerber RS-274X export*
G75*
%MOMM*%
%FSLAX34Y34*%
%LPD*%
%INTop Copper*%
%IPPOS*%
%AMOC8*
5,1,8,0,0,1.08239X$1,22.5*%
G01*
%ADD10C,1.320800*%
%ADD11C,1.879600*%
%ADD12R,1.508000X1.508000*%
%ADD13C,1.508000*%
%ADD14R,1.000000X1.400000*%
%ADD15C,2.705100*%
%ADD16C,1.778000*%
%ADD17C,1.473200*%
%ADD18C,1.000000*%
%ADD19C,0.200000*%


D10*
X-81788Y115824D02*
X-94996Y115824D01*
X-183388Y115824D02*
X-196596Y115824D01*
X196596Y-147828D02*
X209804Y-147828D01*
X108204Y-147828D02*
X94996Y-147828D01*
X-171196Y-147828D02*
X-184404Y-147828D01*
X-82804Y-147828D02*
X-69596Y-147828D01*
X98298Y140970D02*
X111506Y140970D01*
X199898Y140970D02*
X213106Y140970D01*
D11*
X-186944Y58420D03*
X-161544Y58420D03*
X-167640Y159766D03*
X-193040Y159766D03*
X203200Y-128778D03*
X177800Y-128778D03*
X-190500Y-122428D03*
X-165100Y-122428D03*
X184150Y162814D03*
X209550Y162814D03*
D12*
X50800Y-122428D03*
D13*
X-25400Y-147828D03*
X0Y-147828D03*
X25400Y-147828D03*
X50800Y-147828D03*
X25400Y-122428D03*
X0Y-122428D03*
X-25400Y-122428D03*
D14*
X127000Y-133428D03*
X117500Y-111428D03*
X136500Y-111428D03*
X-145288Y117172D03*
X-135788Y95172D03*
X-154788Y95172D03*
X-101600Y-146128D03*
X-111100Y-124128D03*
X-92100Y-124128D03*
X171704Y117172D03*
X181204Y95172D03*
X162204Y95172D03*
D11*
X215900Y99822D03*
X139700Y99822D03*
X-139700Y-122428D03*
X-63500Y-122428D03*
X-98044Y93472D03*
X-174244Y93472D03*
X88900Y-109728D03*
X165100Y-109728D03*
D15*
X-164275Y13462D02*
X-191326Y13462D01*
X-191326Y-33528D02*
X-164275Y-33528D01*
X-164275Y-80518D02*
X-191326Y-80518D01*
D16*
X12700Y100330D02*
X12700Y118110D01*
X38100Y118110D02*
X38100Y100330D01*
X-12700Y100330D02*
X-12700Y118110D01*
X-38100Y118110D02*
X-38100Y100330D01*
X-63500Y100330D02*
X-63500Y118110D01*
X63500Y118110D02*
X63500Y100330D01*
X88900Y100330D02*
X88900Y118110D01*
X114300Y118110D02*
X114300Y100330D01*
D17*
X203200Y68072D03*
X177800Y68072D03*
X152400Y68072D03*
X127000Y68072D03*
X101600Y68072D03*
X76200Y68072D03*
X50800Y68072D03*
X25400Y68072D03*
X0Y68072D03*
X-25400Y68072D03*
X-50800Y68072D03*
X-76200Y68072D03*
X-101600Y68072D03*
X-127000Y68072D03*
X-127000Y-84328D03*
X-101600Y-84328D03*
X-76200Y-84328D03*
X-50800Y-84328D03*
X-25400Y-84328D03*
X0Y-84328D03*
X25400Y-84328D03*
X50800Y-84328D03*
X76200Y-84328D03*
X101600Y-84328D03*
X127000Y-84328D03*
X152400Y-84328D03*
X177800Y-84328D03*
X203200Y-84328D03*
D18*
X171704Y117172D02*
X172204Y117672D01*
X188800Y117672D01*
X206502Y135374D01*
X206502Y140970D01*
X206502Y159766D02*
X209550Y162814D01*
X206502Y159766D02*
X206502Y140970D01*
D19*
X127000Y-133428D02*
X126800Y-134328D01*
D18*
X115100Y-134328D02*
X101600Y-147828D01*
X115100Y-134328D02*
X126800Y-134328D01*
X127000Y-133428D02*
X173150Y-133428D01*
X177800Y-128778D01*
D19*
X-189392Y116624D02*
X-189992Y115824D01*
D18*
X-189992Y156718D02*
X-193040Y159766D01*
X-189992Y156718D02*
X-189992Y115824D01*
X-188644Y117172D01*
X-145288Y117172D01*
D19*
X-101600Y-146128D02*
X-101200Y-146328D01*
X-101600Y-146128D02*
X-103200Y-144328D01*
D18*
X-141200Y-146328D02*
X-165100Y-122428D01*
X-141200Y-146328D02*
X-101200Y-146328D01*
X-101600Y-146128D02*
X-99900Y-147828D01*
X-76200Y-147828D01*
X-186944Y22606D02*
X-186944Y58420D01*
X-186944Y22606D02*
X-177800Y13462D01*
D19*
X-111100Y-124128D02*
X-111162Y-124251D01*
X-98344Y93672D02*
X-135488Y93672D01*
X-135788Y95172D01*
X-98344Y93672D02*
X-98044Y93472D01*
X181204Y95172D02*
X182704Y95672D01*
D18*
X-137877Y-124251D02*
X-139700Y-122428D01*
X-137877Y-124251D02*
X-111162Y-124251D01*
X-139700Y-122428D02*
X-143252Y-118876D01*
X-143252Y40128D02*
X-161544Y58420D01*
X-143252Y40128D02*
X-143252Y-118876D01*
X-159664Y58420D02*
X-161544Y58420D01*
X-159664Y58420D02*
X-135788Y82296D01*
X-135788Y95172D01*
X-134088Y93472D01*
X-98044Y93472D01*
X-97536Y93472D01*
X181204Y95172D02*
X201168Y95172D01*
X211250Y95172D01*
X215900Y99822D01*
X201168Y95172D02*
X201168Y70104D01*
X203200Y68072D01*
X115800Y-109728D02*
X88900Y-109728D01*
X115800Y-109728D02*
X117500Y-111428D01*
D19*
X-75200Y91672D02*
X-93200Y91672D01*
X-75200Y91672D02*
X-67200Y83672D01*
X-59200Y83672D01*
X-35241Y107631D01*
X-93200Y91672D02*
X-98044Y93472D01*
X-38100Y109220D02*
X-35241Y107631D01*
X200800Y63672D02*
X200800Y5672D01*
X114800Y-80328D01*
X114800Y-106328D01*
X200800Y63672D02*
X203200Y68072D01*
X114800Y-106328D02*
X117500Y-111428D01*
X136800Y-110328D02*
X164800Y-110328D01*
X136800Y-110328D02*
X136500Y-111428D01*
X164800Y-110328D02*
X165100Y-109728D01*
X128800Y-104328D02*
X128800Y-84328D01*
X128800Y-104328D02*
X134800Y-110328D01*
X128800Y-84328D02*
X127000Y-84328D01*
X134800Y-110328D02*
X136500Y-111428D01*
X800Y-146328D02*
X0Y-147828D01*
X800Y-84328D02*
X800Y53672D01*
X10800Y63672D01*
X10800Y108720D01*
X800Y-84328D02*
X0Y-84328D01*
X10800Y108720D02*
X12700Y109220D01*
X126800Y96720D02*
X126800Y69672D01*
X126800Y96720D02*
X114300Y109220D01*
X126800Y69672D02*
X127000Y68072D01*
X144800Y95672D02*
X160704Y95672D01*
X144800Y95672D02*
X140800Y99672D01*
X160704Y95672D02*
X162204Y95172D01*
X140800Y99672D02*
X139700Y99822D01*
X-65200Y-124328D02*
X-91200Y-124328D01*
X-92100Y-124128D01*
X-65200Y-124328D02*
X-63500Y-122428D01*
X-63200Y-122328D02*
X-41200Y-122328D01*
X-15200Y-96328D01*
X38800Y-96328D01*
X50800Y-84328D01*
X-63200Y-122328D02*
X-63500Y-122428D01*
X-155200Y93672D02*
X-173200Y93672D01*
X-155200Y93672D02*
X-154788Y95172D01*
X-173200Y93672D02*
X-174244Y93472D01*
X202800Y-130328D02*
X202800Y-146328D01*
X203200Y-147828D01*
X202800Y-130328D02*
X203200Y-128778D01*
X202800Y-128328D02*
X202800Y-128016D01*
X202800Y-84328D01*
X203200Y-84328D01*
X202800Y-128328D02*
X203200Y-128778D01*
X203150Y-147890D02*
X202800Y-148328D01*
X203150Y-147890D02*
X203200Y-147828D01*
X-177200Y-148328D02*
X-177800Y-147828D01*
D18*
X-213440Y-69168D02*
X-177800Y-33528D01*
X-213440Y-69168D02*
X-213440Y-109728D01*
X-200740Y-122428D01*
X-190500Y-122428D01*
X-177800Y-135128D01*
X-177800Y-147828D01*
X-161036Y-164592D01*
X51816Y-164592D01*
X182880Y-164592D01*
X199582Y-147890D01*
X203150Y-147890D01*
X203200Y-147828D02*
X203200Y-128416D01*
X202800Y-128016D01*
X203200Y-128778D02*
X203200Y-84328D01*
X51816Y-164592D02*
X50800Y-163576D01*
M02*
