G04 EAGLE Gerber RS-274X export*
G75*
%MOMM*%
%FSLAX34Y34*%
%LPD*%
%IN*%
%IPPOS*%
%AMOC8*
5,1,8,0,0,1.08239X$1,22.5*%
G01*
%ADD10C,0.254000*%


D10*
X-230000Y-210000D02*
X-190000Y-210000D01*
X-189848Y-213486D01*
X-189392Y-216946D01*
X-188637Y-220353D01*
X-187588Y-223681D01*
X-186252Y-226905D01*
X-184641Y-230000D01*
X-182766Y-232943D01*
X-180642Y-235712D01*
X-178284Y-238284D01*
X-175712Y-240642D01*
X-172943Y-242766D01*
X-170000Y-244641D01*
X-166905Y-246252D01*
X-163681Y-247588D01*
X-160353Y-248637D01*
X-156946Y-249392D01*
X-153486Y-249848D01*
X-150000Y-250000D01*
X-146514Y-249848D01*
X-143054Y-249392D01*
X-139647Y-248637D01*
X-136319Y-247588D01*
X-133095Y-246252D01*
X-130000Y-244641D01*
X-127057Y-242766D01*
X-124289Y-240642D01*
X-121716Y-238284D01*
X-119358Y-235712D01*
X-117234Y-232943D01*
X-115359Y-230000D01*
X-113748Y-226905D01*
X-112412Y-223681D01*
X-111363Y-220353D01*
X-110608Y-216946D01*
X-110152Y-213486D01*
X-110000Y-210000D01*
X110000Y-210000D01*
X110152Y-213486D01*
X110608Y-216946D01*
X111363Y-220353D01*
X112412Y-223681D01*
X113748Y-226905D01*
X115359Y-230000D01*
X117234Y-232943D01*
X119358Y-235712D01*
X121716Y-238284D01*
X124289Y-240642D01*
X127057Y-242766D01*
X130000Y-244641D01*
X133095Y-246252D01*
X136319Y-247588D01*
X139647Y-248637D01*
X143054Y-249392D01*
X146514Y-249848D01*
X150000Y-250000D01*
X153486Y-249848D01*
X156946Y-249392D01*
X160353Y-248637D01*
X163681Y-247588D01*
X166905Y-246252D01*
X170000Y-244641D01*
X172943Y-242766D01*
X175712Y-240642D01*
X178284Y-238284D01*
X180642Y-235712D01*
X182766Y-232943D01*
X184641Y-230000D01*
X186252Y-226905D01*
X187588Y-223681D01*
X188637Y-220353D01*
X189392Y-216946D01*
X189848Y-213486D01*
X190000Y-210000D01*
X230000Y-210000D01*
X230000Y210000D01*
X190000Y210000D01*
X189848Y213486D01*
X189392Y216946D01*
X188637Y220353D01*
X187588Y223681D01*
X186252Y226905D01*
X184641Y230000D01*
X182766Y232943D01*
X180642Y235712D01*
X178284Y238284D01*
X175712Y240642D01*
X172943Y242766D01*
X170000Y244641D01*
X166905Y246252D01*
X163681Y247588D01*
X160353Y248637D01*
X156946Y249392D01*
X153486Y249848D01*
X150000Y250000D01*
X146514Y249848D01*
X143054Y249392D01*
X139647Y248637D01*
X136319Y247588D01*
X133095Y246252D01*
X130000Y244641D01*
X127057Y242766D01*
X124289Y240642D01*
X121716Y238284D01*
X119358Y235712D01*
X117234Y232943D01*
X115359Y230000D01*
X113748Y226905D01*
X112412Y223681D01*
X111363Y220353D01*
X110608Y216946D01*
X110152Y213486D01*
X110000Y210000D01*
X-110000Y210000D01*
X-110152Y213486D01*
X-110608Y216946D01*
X-111363Y220353D01*
X-112412Y223681D01*
X-113748Y226905D01*
X-115359Y230000D01*
X-117234Y232943D01*
X-119358Y235712D01*
X-121716Y238284D01*
X-124289Y240642D01*
X-127057Y242766D01*
X-130000Y244641D01*
X-133095Y246252D01*
X-136319Y247588D01*
X-139647Y248637D01*
X-143054Y249392D01*
X-146514Y249848D01*
X-150000Y250000D01*
X-153486Y249848D01*
X-156946Y249392D01*
X-160353Y248637D01*
X-163681Y247588D01*
X-166905Y246252D01*
X-170000Y244641D01*
X-172943Y242766D01*
X-175712Y240642D01*
X-178284Y238284D01*
X-180642Y235712D01*
X-182766Y232943D01*
X-184641Y230000D01*
X-186252Y226905D01*
X-187588Y223681D01*
X-188637Y220353D01*
X-189392Y216946D01*
X-189848Y213486D01*
X-190000Y210000D01*
X-230000Y210000D01*
X-230000Y-210000D01*
X-127000Y209355D02*
X-127000Y210645D01*
X-127072Y211934D01*
X-127217Y213216D01*
X-127433Y214489D01*
X-127720Y215747D01*
X-128078Y216987D01*
X-128504Y218206D01*
X-128998Y219398D01*
X-129558Y220561D01*
X-130182Y221690D01*
X-130869Y222783D01*
X-131616Y223836D01*
X-132420Y224845D01*
X-133280Y225807D01*
X-134193Y226720D01*
X-135155Y227580D01*
X-136164Y228384D01*
X-137217Y229131D01*
X-138310Y229818D01*
X-139439Y230442D01*
X-140602Y231002D01*
X-141794Y231496D01*
X-143013Y231922D01*
X-144253Y232280D01*
X-145511Y232567D01*
X-146784Y232783D01*
X-148066Y232928D01*
X-149355Y233000D01*
X-150645Y233000D01*
X-151934Y232928D01*
X-153216Y232783D01*
X-154489Y232567D01*
X-155747Y232280D01*
X-156987Y231922D01*
X-158206Y231496D01*
X-159398Y231002D01*
X-160561Y230442D01*
X-161690Y229818D01*
X-162783Y229131D01*
X-163836Y228384D01*
X-164845Y227580D01*
X-165807Y226720D01*
X-166720Y225807D01*
X-167580Y224845D01*
X-168384Y223836D01*
X-169131Y222783D01*
X-169818Y221690D01*
X-170442Y220561D01*
X-171002Y219398D01*
X-171496Y218206D01*
X-171922Y216987D01*
X-172280Y215747D01*
X-172567Y214489D01*
X-172783Y213216D01*
X-172928Y211934D01*
X-173000Y210645D01*
X-173000Y209355D01*
X-172928Y208066D01*
X-172783Y206784D01*
X-172567Y205511D01*
X-172280Y204253D01*
X-171922Y203013D01*
X-171496Y201794D01*
X-171002Y200602D01*
X-170442Y199439D01*
X-169818Y198310D01*
X-169131Y197217D01*
X-168384Y196164D01*
X-167580Y195155D01*
X-166720Y194193D01*
X-165807Y193280D01*
X-164845Y192420D01*
X-163836Y191616D01*
X-162783Y190869D01*
X-161690Y190182D01*
X-160561Y189558D01*
X-159398Y188998D01*
X-158206Y188504D01*
X-156987Y188078D01*
X-155747Y187720D01*
X-154489Y187433D01*
X-153216Y187217D01*
X-151934Y187072D01*
X-150645Y187000D01*
X-149355Y187000D01*
X-148066Y187072D01*
X-146784Y187217D01*
X-145511Y187433D01*
X-144253Y187720D01*
X-143013Y188078D01*
X-141794Y188504D01*
X-140602Y188998D01*
X-139439Y189558D01*
X-138310Y190182D01*
X-137217Y190869D01*
X-136164Y191616D01*
X-135155Y192420D01*
X-134193Y193280D01*
X-133280Y194193D01*
X-132420Y195155D01*
X-131616Y196164D01*
X-130869Y197217D01*
X-130182Y198310D01*
X-129558Y199439D01*
X-128998Y200602D01*
X-128504Y201794D01*
X-128078Y203013D01*
X-127720Y204253D01*
X-127433Y205511D01*
X-127217Y206784D01*
X-127072Y208066D01*
X-127000Y209355D01*
X173000Y209355D02*
X173000Y210645D01*
X172928Y211934D01*
X172783Y213216D01*
X172567Y214489D01*
X172280Y215747D01*
X171922Y216987D01*
X171496Y218206D01*
X171002Y219398D01*
X170442Y220561D01*
X169818Y221690D01*
X169131Y222783D01*
X168384Y223836D01*
X167580Y224845D01*
X166720Y225807D01*
X165807Y226720D01*
X164845Y227580D01*
X163836Y228384D01*
X162783Y229131D01*
X161690Y229818D01*
X160561Y230442D01*
X159398Y231002D01*
X158206Y231496D01*
X156987Y231922D01*
X155747Y232280D01*
X154489Y232567D01*
X153216Y232783D01*
X151934Y232928D01*
X150645Y233000D01*
X149355Y233000D01*
X148066Y232928D01*
X146784Y232783D01*
X145511Y232567D01*
X144253Y232280D01*
X143013Y231922D01*
X141794Y231496D01*
X140602Y231002D01*
X139439Y230442D01*
X138310Y229818D01*
X137217Y229131D01*
X136164Y228384D01*
X135155Y227580D01*
X134193Y226720D01*
X133280Y225807D01*
X132420Y224845D01*
X131616Y223836D01*
X130869Y222783D01*
X130182Y221690D01*
X129558Y220561D01*
X128998Y219398D01*
X128504Y218206D01*
X128078Y216987D01*
X127720Y215747D01*
X127433Y214489D01*
X127217Y213216D01*
X127072Y211934D01*
X127000Y210645D01*
X127000Y209355D01*
X127072Y208066D01*
X127217Y206784D01*
X127433Y205511D01*
X127720Y204253D01*
X128078Y203013D01*
X128504Y201794D01*
X128998Y200602D01*
X129558Y199439D01*
X130182Y198310D01*
X130869Y197217D01*
X131616Y196164D01*
X132420Y195155D01*
X133280Y194193D01*
X134193Y193280D01*
X135155Y192420D01*
X136164Y191616D01*
X137217Y190869D01*
X138310Y190182D01*
X139439Y189558D01*
X140602Y188998D01*
X141794Y188504D01*
X143013Y188078D01*
X144253Y187720D01*
X145511Y187433D01*
X146784Y187217D01*
X148066Y187072D01*
X149355Y187000D01*
X150645Y187000D01*
X151934Y187072D01*
X153216Y187217D01*
X154489Y187433D01*
X155747Y187720D01*
X156987Y188078D01*
X158206Y188504D01*
X159398Y188998D01*
X160561Y189558D01*
X161690Y190182D01*
X162783Y190869D01*
X163836Y191616D01*
X164845Y192420D01*
X165807Y193280D01*
X166720Y194193D01*
X167580Y195155D01*
X168384Y196164D01*
X169131Y197217D01*
X169818Y198310D01*
X170442Y199439D01*
X171002Y200602D01*
X171496Y201794D01*
X171922Y203013D01*
X172280Y204253D01*
X172567Y205511D01*
X172783Y206784D01*
X172928Y208066D01*
X173000Y209355D01*
X173000Y-210645D02*
X173000Y-209355D01*
X172928Y-208066D01*
X172783Y-206784D01*
X172567Y-205511D01*
X172280Y-204253D01*
X171922Y-203013D01*
X171496Y-201794D01*
X171002Y-200602D01*
X170442Y-199439D01*
X169818Y-198310D01*
X169131Y-197217D01*
X168384Y-196164D01*
X167580Y-195155D01*
X166720Y-194193D01*
X165807Y-193280D01*
X164845Y-192420D01*
X163836Y-191616D01*
X162783Y-190869D01*
X161690Y-190182D01*
X160561Y-189558D01*
X159398Y-188998D01*
X158206Y-188504D01*
X156987Y-188078D01*
X155747Y-187720D01*
X154489Y-187433D01*
X153216Y-187217D01*
X151934Y-187072D01*
X150645Y-187000D01*
X149355Y-187000D01*
X148066Y-187072D01*
X146784Y-187217D01*
X145511Y-187433D01*
X144253Y-187720D01*
X143013Y-188078D01*
X141794Y-188504D01*
X140602Y-188998D01*
X139439Y-189558D01*
X138310Y-190182D01*
X137217Y-190869D01*
X136164Y-191616D01*
X135155Y-192420D01*
X134193Y-193280D01*
X133280Y-194193D01*
X132420Y-195155D01*
X131616Y-196164D01*
X130869Y-197217D01*
X130182Y-198310D01*
X129558Y-199439D01*
X128998Y-200602D01*
X128504Y-201794D01*
X128078Y-203013D01*
X127720Y-204253D01*
X127433Y-205511D01*
X127217Y-206784D01*
X127072Y-208066D01*
X127000Y-209355D01*
X127000Y-210645D01*
X127072Y-211934D01*
X127217Y-213216D01*
X127433Y-214489D01*
X127720Y-215747D01*
X128078Y-216987D01*
X128504Y-218206D01*
X128998Y-219398D01*
X129558Y-220561D01*
X130182Y-221690D01*
X130869Y-222783D01*
X131616Y-223836D01*
X132420Y-224845D01*
X133280Y-225807D01*
X134193Y-226720D01*
X135155Y-227580D01*
X136164Y-228384D01*
X137217Y-229131D01*
X138310Y-229818D01*
X139439Y-230442D01*
X140602Y-231002D01*
X141794Y-231496D01*
X143013Y-231922D01*
X144253Y-232280D01*
X145511Y-232567D01*
X146784Y-232783D01*
X148066Y-232928D01*
X149355Y-233000D01*
X150645Y-233000D01*
X151934Y-232928D01*
X153216Y-232783D01*
X154489Y-232567D01*
X155747Y-232280D01*
X156987Y-231922D01*
X158206Y-231496D01*
X159398Y-231002D01*
X160561Y-230442D01*
X161690Y-229818D01*
X162783Y-229131D01*
X163836Y-228384D01*
X164845Y-227580D01*
X165807Y-226720D01*
X166720Y-225807D01*
X167580Y-224845D01*
X168384Y-223836D01*
X169131Y-222783D01*
X169818Y-221690D01*
X170442Y-220561D01*
X171002Y-219398D01*
X171496Y-218206D01*
X171922Y-216987D01*
X172280Y-215747D01*
X172567Y-214489D01*
X172783Y-213216D01*
X172928Y-211934D01*
X173000Y-210645D01*
X-127000Y-210645D02*
X-127000Y-209355D01*
X-127072Y-208066D01*
X-127217Y-206784D01*
X-127433Y-205511D01*
X-127720Y-204253D01*
X-128078Y-203013D01*
X-128504Y-201794D01*
X-128998Y-200602D01*
X-129558Y-199439D01*
X-130182Y-198310D01*
X-130869Y-197217D01*
X-131616Y-196164D01*
X-132420Y-195155D01*
X-133280Y-194193D01*
X-134193Y-193280D01*
X-135155Y-192420D01*
X-136164Y-191616D01*
X-137217Y-190869D01*
X-138310Y-190182D01*
X-139439Y-189558D01*
X-140602Y-188998D01*
X-141794Y-188504D01*
X-143013Y-188078D01*
X-144253Y-187720D01*
X-145511Y-187433D01*
X-146784Y-187217D01*
X-148066Y-187072D01*
X-149355Y-187000D01*
X-150645Y-187000D01*
X-151934Y-187072D01*
X-153216Y-187217D01*
X-154489Y-187433D01*
X-155747Y-187720D01*
X-156987Y-188078D01*
X-158206Y-188504D01*
X-159398Y-188998D01*
X-160561Y-189558D01*
X-161690Y-190182D01*
X-162783Y-190869D01*
X-163836Y-191616D01*
X-164845Y-192420D01*
X-165807Y-193280D01*
X-166720Y-194193D01*
X-167580Y-195155D01*
X-168384Y-196164D01*
X-169131Y-197217D01*
X-169818Y-198310D01*
X-170442Y-199439D01*
X-171002Y-200602D01*
X-171496Y-201794D01*
X-171922Y-203013D01*
X-172280Y-204253D01*
X-172567Y-205511D01*
X-172783Y-206784D01*
X-172928Y-208066D01*
X-173000Y-209355D01*
X-173000Y-210645D01*
X-172928Y-211934D01*
X-172783Y-213216D01*
X-172567Y-214489D01*
X-172280Y-215747D01*
X-171922Y-216987D01*
X-171496Y-218206D01*
X-171002Y-219398D01*
X-170442Y-220561D01*
X-169818Y-221690D01*
X-169131Y-222783D01*
X-168384Y-223836D01*
X-167580Y-224845D01*
X-166720Y-225807D01*
X-165807Y-226720D01*
X-164845Y-227580D01*
X-163836Y-228384D01*
X-162783Y-229131D01*
X-161690Y-229818D01*
X-160561Y-230442D01*
X-159398Y-231002D01*
X-158206Y-231496D01*
X-156987Y-231922D01*
X-155747Y-232280D01*
X-154489Y-232567D01*
X-153216Y-232783D01*
X-151934Y-232928D01*
X-150645Y-233000D01*
X-149355Y-233000D01*
X-148066Y-232928D01*
X-146784Y-232783D01*
X-145511Y-232567D01*
X-144253Y-232280D01*
X-143013Y-231922D01*
X-141794Y-231496D01*
X-140602Y-231002D01*
X-139439Y-230442D01*
X-138310Y-229818D01*
X-137217Y-229131D01*
X-136164Y-228384D01*
X-135155Y-227580D01*
X-134193Y-226720D01*
X-133280Y-225807D01*
X-132420Y-224845D01*
X-131616Y-223836D01*
X-130869Y-222783D01*
X-130182Y-221690D01*
X-129558Y-220561D01*
X-128998Y-219398D01*
X-128504Y-218206D01*
X-128078Y-216987D01*
X-127720Y-215747D01*
X-127433Y-214489D01*
X-127217Y-213216D01*
X-127072Y-211934D01*
X-127000Y-210645D01*
M02*
